<svg width="25" height="25" viewBox="0 0 25 25" fill="none" xmlns="http://www.w3.org/2000/svg">
<path d="M12.5 1C15.0555 1 17.0474 1.116 18.6069 1.41602C20.1612 1.71507 21.2114 2.18344 21.9489 2.83352C23.4146 4.12549 24 6.45439 24 11.1111C24 14.113 23.7309 16.3305 23.0005 17.7789C22.6492 18.4754 22.2031 18.9685 21.6401 19.2967C21.0714 19.6283 20.3117 19.8333 19.2711 19.8333C17.9431 19.8333 16.95 20.1314 16.175 20.6565C15.418 21.1694 14.9607 21.8413 14.6182 22.3803C14.5665 22.4617 14.518 22.5387 14.472 22.6117C14.1848 23.0678 13.9953 23.3687 13.7322 23.6047C13.4937 23.8187 13.1618 24 12.5003 24C11.8388 24 11.5069 23.8186 11.2684 23.6046C11.0053 23.3686 10.8158 23.0677 10.5286 22.6117C10.4826 22.5386 10.4341 22.4616 10.3824 22.3802C10.0398 21.8412 9.58249 21.1694 8.82548 20.6565C8.0505 20.1314 7.05745 19.8333 5.72942 19.8333C4.69404 19.8333 3.93672 19.6231 3.36815 19.2846C2.80363 18.9486 2.35474 18.4444 2.00135 17.7376C1.26849 16.2717 1 14.0505 1 11.1111C1 6.51339 1.58381 4.17874 3.05421 2.87172C3.79378 2.21432 4.84552 1.73712 6.398 1.43043C7.95589 1.12268 9.94661 1 12.5 1Z" stroke="#212135" stroke-width="2" stroke-linecap="round" stroke-linejoin="round"/>
<ellipse cx="8.33366" cy="11.4582" rx="1.04167" ry="1.04167" fill="#212135"/>
<ellipse cx="12.4997" cy="11.4582" rx="1.04167" ry="1.04167" fill="#212135"/>
<ellipse cx="16.6667" cy="11.4582" rx="1.04167" ry="1.04167" fill="#212135"/>
</svg>
