<svg width="16" height="20" viewBox="0 0 16 20" fill="none" xmlns="http://www.w3.org/2000/svg">
<path d="M8.12754 18.8054C8.51242 19.9395 9.97497 20.4619 10.8783 19.4903C11.064 19.2929 11.2473 19.0782 11.3719 18.8878C11.7341 18.3306 11.8869 17.5958 11.9424 16.8795C11.999 16.1505 11.9605 15.3681 11.8881 14.66C11.8232 14.0437 11.7322 13.4306 11.6152 12.8224L11.6039 12.762H12.6035C13.101 12.7621 13.5924 12.6501 14.043 12.4339C14.4937 12.2177 14.8925 11.9026 15.2112 11.511C15.53 11.1193 15.761 10.6606 15.8878 10.1672C16.0146 9.67392 16.0342 9.15805 15.9452 8.65611L15.1709 4.28901C15.0445 3.57667 14.7751 2.89904 14.3799 2.29912C13.9846 1.69921 13.472 1.19011 12.8746 0.804145C12.2773 0.418175 11.6082 0.163761 10.9099 0.0570494C10.2115 -0.0496626 9.4992 -0.00634267 8.81806 0.18426L2.47885 1.95687C1.9721 2.09902 1.51393 2.38303 1.15566 2.77708C0.797386 3.17113 0.553152 3.65968 0.450303 4.18802L0.0507064 6.23691C-0.26399 7.84932 0.938196 9.20635 2.21623 9.72525C2.58186 9.87268 2.91128 10.0607 3.16711 10.2941C5.09944 12.0504 5.79901 13.455 6.99894 15.923C7.39967 16.7472 7.81171 17.8686 8.12868 18.8042L8.12754 18.8054ZM10.3519 12.3221V12.3244L10.3542 12.3325L10.3621 12.3685C10.4143 12.593 10.4618 12.8187 10.5047 13.0453C10.5908 13.498 10.6938 14.1132 10.7617 14.7819C10.8308 15.4517 10.8636 16.1563 10.8138 16.7878C10.764 17.4321 10.6327 17.9313 10.4289 18.2435C10.3621 18.348 10.2353 18.5012 10.0599 18.6881C9.8346 18.9308 9.34897 18.8739 9.19728 18.4246C8.87693 17.4797 8.44564 16.3003 8.01095 15.4053C6.8031 12.9211 6.02315 11.3411 3.91763 9.42575C3.53623 9.09137 3.10111 8.82742 2.63167 8.64566C1.63551 8.24169 0.993664 7.31185 1.16007 6.46443L1.55853 4.41554C1.62044 4.09833 1.76731 3.80507 1.98265 3.56866C2.19799 3.33224 2.4733 3.16203 2.7777 3.07709L9.11691 1.30448C9.6466 1.15639 10.2005 1.12282 10.7435 1.20588C11.2865 1.28894 11.8068 1.48683 12.2713 1.78698C12.7358 2.08714 13.1344 2.48302 13.4418 2.9495C13.7492 3.41599 13.9587 3.94289 14.057 4.4968L14.8313 8.8639C14.8906 9.19853 14.8776 9.54244 14.793 9.87132C14.7085 10.2002 14.5545 10.506 14.342 10.7671C14.1295 11.0283 13.8636 11.2383 13.5632 11.3824C13.2628 11.5266 12.9351 11.6012 12.6035 11.6012H10.8998C10.8139 11.6014 10.7292 11.6216 10.6521 11.6604C10.575 11.6991 10.5075 11.7553 10.4547 11.8248C10.4019 11.8943 10.3652 11.9751 10.3474 12.0613C10.3296 12.1474 10.3311 12.2366 10.3519 12.3221Z" fill="black"/>
</svg>
