<svg width="14" height="16" viewBox="0 0 14 16" fill="none" xmlns="http://www.w3.org/2000/svg">
<path d="M1.97169 9.85283C2.0077 10.0328 2.04225 10.2066 2.07566 10.3747C2.2684 11.3445 2.42284 12.1215 2.59825 12.7653C2.80377 13.5196 3.01598 13.9998 3.28169 14.3285C3.76597 14.9276 4.61835 15.25 6.99992 15.25C9.38149 15.25 10.2339 14.9276 10.7181 14.3285C10.9838 13.9998 11.1961 13.5196 11.4016 12.7653C11.577 12.1215 11.7314 11.3445 11.9242 10.3747C11.9576 10.2067 11.9921 10.0328 12.0282 9.85282C12.4969 7.51034 12.1764 6.36798 11.5111 5.74919C11.1573 5.42019 10.6341 5.16446 9.87416 4.9944C9.1133 4.82413 8.16186 4.75 6.99992 4.75C5.83798 4.75 4.88654 4.82413 4.12568 4.9944C3.36575 5.16446 2.84251 5.42018 2.48876 5.74919C1.82343 6.36798 1.5029 7.51034 1.97169 9.85283Z" stroke="white" stroke-width="1.5" stroke-linecap="round" stroke-linejoin="round"/>
<path d="M6.99958 8V12M4.59961 8V12M9.39954 8V12" stroke="white" stroke-width="1.5" stroke-linecap="round" stroke-linejoin="round"/>
<path fill-rule="evenodd" clip-rule="evenodd" d="M8.19958 1.29639C10.4346 1.47354 11.9444 2.12674 12.8164 2.70989C13.1608 2.94015 13.2532 3.40593 13.023 3.75025C12.7927 4.09457 12.3269 4.18703 11.9826 3.95678C11.2302 3.45363 9.63334 2.75 6.9996 2.75C4.35436 2.75 2.71492 3.45906 2.0352 3.94391C1.69799 4.18445 1.22963 4.10608 0.989088 3.76887C0.748548 3.43166 0.826918 2.96329 1.16413 2.72275C2.00352 2.12401 3.55828 1.47257 5.79961 1.29618V1C5.79961 0.447715 6.24733 0 6.79961 0H7.19958C7.75186 0 8.19958 0.447715 8.19958 1V1.29639Z" fill="white"/>
</svg>
