<svg width="16" height="20" viewBox="0 0 16 20" fill="none" xmlns="http://www.w3.org/2000/svg">
<path d="M8.1281 1.19462C8.51295 0.0604698 9.9754 -0.461912 10.8787 0.509718C11.0643 0.707063 11.2477 0.920659 11.3722 1.1122C11.7344 1.66941 11.8872 2.40422 11.9427 3.12047C11.9993 3.84832 11.9608 4.63073 11.8883 5.34001C11.8231 5.95627 11.7321 6.56937 11.6156 7.17763L11.6042 7.238H12.6037C13.1012 7.23792 13.5926 7.34994 14.0432 7.56612C14.4938 7.78231 14.8925 8.09738 15.2113 8.48907C15.5301 8.88075 15.761 9.33947 15.8878 9.83279C16.0146 10.3261 16.0342 10.842 15.9452 11.3439L15.1709 15.7099C15.0447 16.4223 14.7755 17.1001 14.3803 17.7001C13.9851 18.3002 13.4725 18.8094 12.8752 19.1955C12.2779 19.5816 11.6088 19.8361 10.9105 19.9429C10.2121 20.0497 9.49974 20.0064 8.81857 19.8158L2.47981 18.0432C1.97288 17.9012 1.51451 17.6173 1.15605 17.2232C0.79759 16.8292 0.553204 16.3405 0.450272 15.812L0.0507028 13.7631C-0.263972 12.1507 0.93813 10.7925 2.21607 10.2748C2.56254 10.1426 2.88419 9.95022 3.16689 9.70596C5.09908 7.94844 5.7986 6.54497 6.99844 4.07585C7.39914 3.25164 7.81116 2.13026 8.1281 1.19462ZM10.3523 7.67796V7.67564L10.3546 7.66751L10.3625 7.63153C10.4149 7.40664 10.4624 7.1806 10.5051 6.95359C10.5912 6.50318 10.6942 5.88561 10.7621 5.21812C10.8311 4.54831 10.864 3.84368 10.8142 3.21217C10.7643 2.56674 10.633 2.06874 10.4293 1.75531C10.3177 1.59758 10.1943 1.44893 10.0603 1.3107C9.83504 1.06925 9.34944 1.12497 9.19777 1.57538C8.87743 2.52031 8.44617 3.69973 8.01151 4.59358C6.80375 7.07896 6.02386 8.65888 3.91848 10.5743C3.53363 10.9249 3.07633 11.1744 2.63262 11.3544C1.63653 11.7583 0.994726 12.687 1.16112 13.5356L1.55956 15.5845C1.62146 15.9017 1.76831 16.195 1.98364 16.4314C2.19897 16.6678 2.47426 16.838 2.77864 16.923L9.1174 18.6956C9.64705 18.8437 10.2009 18.8772 10.7439 18.7942C11.2869 18.7111 11.8071 18.5132 12.2715 18.2131C12.736 17.9129 13.1346 17.517 13.4419 17.0505C13.7493 16.5841 13.9588 16.0571 14.0571 15.5032L14.8313 11.1361C14.8907 10.8015 14.8777 10.4576 14.7931 10.1287C14.7086 9.79983 14.5546 9.49401 14.3421 9.23289C14.1296 8.97177 13.8638 8.76172 13.5634 8.6176C13.263 8.47347 12.9354 8.3988 12.6037 8.39885H10.9002C10.8143 8.39865 10.7296 8.37841 10.6525 8.33967C10.5754 8.30092 10.5079 8.24469 10.4551 8.17523C10.4023 8.10577 10.3656 8.0249 10.3478 7.93874C10.33 7.85259 10.3315 7.76341 10.3523 7.67796Z" fill="black"/>
</svg>
