<svg width="20" height="20" viewBox="0 0 20 20" fill="none" xmlns="http://www.w3.org/2000/svg">
<path d="M0.881735 9.85497C1.31689 12.0629 2.67214 13.9293 4.27595 15.4274C5.8763 16.9223 7.67363 18.0028 8.89211 18.6416C9.59264 19.009 10.4074 19.009 11.1079 18.6416C12.3264 18.0028 14.1237 16.9223 15.7241 15.4274C17.3279 13.9293 18.6831 12.0629 19.1183 9.85498C19.4903 7.96728 19.0938 5.69338 17.6879 3.90027C16.2997 2.1298 13.8642 0.75 10 0.75C6.1358 0.75 3.70031 2.1298 2.31213 3.90027C0.906188 5.69338 0.509686 7.96728 0.881735 9.85497Z" stroke="#212135" stroke-width="1.5" stroke-linecap="round" stroke-linejoin="round"/>
<path d="M7.41659 8.33333C7.41659 9.76007 8.57318 10.9167 9.99992 10.9167C11.4267 10.9167 12.5833 9.76007 12.5833 8.33333C12.5833 6.9066 11.4267 5.75 9.99992 5.75C8.57318 5.75 7.41659 6.9066 7.41659 8.33333Z" stroke="#212135" stroke-width="1.5"/>
</svg>
