<svg width="20" height="22" viewBox="0 0 20 22" fill="none" xmlns="http://www.w3.org/2000/svg">
<path d="M0.75 17.4167C0.75 18.3157 0.857769 18.941 1.0793 19.3979C1.28696 19.8261 1.62393 20.1667 2.22437 20.4419C2.84955 20.7285 3.74702 20.9368 5.03936 21.0685C6.32453 21.1994 7.94873 21.25 10 21.25C12.0513 21.25 13.6755 21.1994 14.9606 21.0685C16.253 20.9368 17.1504 20.7285 17.7756 20.4419C18.3761 20.1667 18.713 19.8261 18.9207 19.3979C19.1422 18.941 19.25 18.3157 19.25 17.4167C19.25 16.5176 19.1422 15.8923 18.9207 15.4354C18.713 15.0072 18.3761 14.6666 17.7756 14.3914C17.1504 14.1049 16.253 13.8965 14.9606 13.7648C13.6755 13.6339 12.0513 13.5833 10 13.5833C7.94873 13.5833 6.32453 13.6339 5.03936 13.7648C3.74702 13.8965 2.84955 14.1049 2.22437 14.3914C1.62393 14.6666 1.28696 15.0072 1.0793 15.4354C0.857769 15.8923 0.75 16.5176 0.75 17.4167Z" stroke="#212135" stroke-width="1.5" stroke-linecap="round" stroke-linejoin="round"/>
<path d="M5.2955 5.5C5.2955 8.12923 7.40765 10.25 10 10.25C12.5924 10.25 14.7046 8.12923 14.7046 5.5C14.7046 2.87077 12.5924 0.75 10 0.75C7.40765 0.75 5.2955 2.87077 5.2955 5.5Z" stroke="#212135" stroke-width="1.5"/>
</svg>
