<svg width="25" height="25" viewBox="0 0 25 25" fill="none" xmlns="http://www.w3.org/2000/svg">
<path d="M1 12.5C1 15.0506 1.13797 17.032 1.48175 18.5789C1.823 20.1144 2.35361 21.1597 3.09695 21.903C3.84029 22.6464 4.88565 23.177 6.42115 23.5183C7.96801 23.862 9.94939 24 12.5 24C15.0506 24 17.032 23.862 18.5789 23.5183C20.1144 23.177 21.1597 22.6464 21.903 21.903C22.6464 21.1597 23.177 20.1144 23.5182 18.5789C23.862 17.032 24 15.0506 24 12.5C24 9.94939 23.862 7.96801 23.5182 6.42115C23.177 4.88565 22.6464 3.8403 21.903 3.09695C21.1597 2.35361 20.1144 1.823 18.5789 1.48175C17.032 1.13797 15.0506 1 12.5 1C9.94939 1 7.96801 1.13797 6.42115 1.48175C4.88565 1.823 3.84029 2.35361 3.09695 3.09695C2.35361 3.8403 1.823 4.88564 1.48175 6.42115C1.13797 7.96801 1 9.94939 1 12.5Z" stroke="#212135" stroke-width="2" stroke-linecap="round" stroke-linejoin="round"/>
<path d="M16.6328 10.8007C17.0916 11.1807 17.5558 11.7172 17.5558 12.5C17.5558 13.2827 17.0916 13.8192 16.6328 14.1993C16.2004 14.5575 15.5851 14.928 14.8926 15.3451C14.8712 15.3579 14.8498 15.3709 14.8282 15.3838L13.1455 16.3975C13.1235 16.4107 13.1016 16.4239 13.0797 16.4371C12.3885 16.8536 11.7729 17.2245 11.2578 17.4368C10.7171 17.6597 10.002 17.8285 9.30906 17.4111M16.6328 10.8007L9.30906 17.4111C9.30906 17.4111 9.30906 17.4111 9.30906 17.4111M16.6328 10.8007C16.2004 10.4425 15.5851 10.072 14.8926 9.65492C14.8712 9.64205 14.8498 9.62913 14.8282 9.61616L13.1455 8.60254C13.1235 8.58928 13.1016 8.57607 13.0798 8.56291C12.3886 8.14644 11.7729 7.77549 11.2578 7.56319C10.7171 7.34034 10.002 7.17148 9.30906 7.58892C8.632 7.99676 8.42677 8.69604 8.34424 9.27602C8.26403 9.83975 8.26409 10.575 8.26416 11.4132C8.26416 11.4375 8.26416 11.4619 8.26416 11.4864L8.26416 13.5136C8.26416 13.5381 8.26416 13.5625 8.26416 13.5868C8.26409 14.425 8.26403 15.1602 8.34424 15.724C8.42677 16.3039 8.632 17.0032 9.30906 17.4111M16.6328 10.8007L9.30906 17.4111" stroke="#212135" stroke-width="2" stroke-linecap="round" stroke-linejoin="round"/>
</svg>
