<svg width="21" height="12" viewBox="0 0 21 12" fill="none" xmlns="http://www.w3.org/2000/svg">
<path d="M1.4899 6.60386C3.06716 8.31291 6.39617 11.25 10.5 11.25C14.6038 11.25 17.9328 8.31291 19.5101 6.60386C19.8343 6.25255 19.8343 5.74745 19.5101 5.39614C17.9328 3.68709 14.6038 0.75 10.5 0.75C6.39617 0.75 3.06716 3.68709 1.4899 5.39614C1.16568 5.74745 1.16568 6.25255 1.4899 6.60386Z" stroke="#212135" stroke-width="1.5" stroke-linecap="round" stroke-linejoin="round"/>
<path d="M8.625 6C8.625 6.99145 9.44981 7.82143 10.5 7.82143C11.5502 7.82143 12.375 6.99145 12.375 6C12.375 5.00856 11.5502 4.17857 10.5 4.17857C9.44981 4.17857 8.625 5.00856 8.625 6Z" stroke="#212135" stroke-width="1.5"/>
</svg>
